<svg width="214" height="160" viewBox="0 0 214 160" fill="none" xmlns="http://www.w3.org/2000/svg">
<path d="M93.1128 40.0013C97.1059 36.0082 101.01 36.823 104.584 40.1465C107.835 43.1634 113.239 39.9771 111.941 35.742C111.553 34.4755 110.658 33.4107 109.182 32.5879C94.6617 24.5535 67.1218 52.3192 56.4011 68.2833C48.8345 79.5525 48.4231 72.7523 46.0514 66.92C41.3727 55.3523 28.1271 23.8194 18.0114 33.8221C6.33079 45.3576 36.3794 86.8852 45.1964 94.2985C46.7291 95.5811 48.9232 95.6941 50.5769 94.5728C57.5224 89.878 76.1727 76.9631 91.1526 63.9676C92.5966 62.7172 93.0967 60.6763 92.3707 58.9097C89.2892 51.4157 88.6439 44.4864 93.129 40.0013H93.1128Z" fill="#F79939"/>
<path d="M194.859 16.1076C179.605 7.66167 134.956 54.6021 126.421 70.4129C120.71 80.9884 120.347 72.2279 119.338 69.1383C117.305 62.9189 114.022 54.0455 110.005 47.2533C109.505 46.4062 108.303 46.3498 107.714 47.1403C105.593 49.9718 102.826 53.021 99.6393 56.1589C96.0415 59.7083 95.3155 65.2986 98.0098 69.5739C104.366 79.6977 112.82 89.2487 116.999 93.7419C118.459 95.3149 120.839 95.5892 122.613 94.3792C137.142 84.5297 211.945 25.5618 194.859 16.1076Z" fill="#69BCA0"/>
<path d="M48.5482 46.0267C47.6931 49.7536 50.0889 52.7544 53.8722 52.7544C57.4377 52.7544 60.6402 49.7778 61.8099 46.1397C62.9877 42.5016 60.5273 39.3071 56.8811 39.3071C53.235 39.3071 49.4033 42.2999 48.5482 46.0267Z" fill="#97D4C5"/>
<path d="M121.246 43.2922C120.359 47.1642 122.843 50.2861 126.772 50.2861C130.7 50.2861 133.798 47.1965 135.024 43.4132C136.25 39.6299 133.717 36.3145 129.902 36.3145C126.086 36.3145 122.134 39.4202 121.246 43.2922Z" fill="#69BCA0"/>
<path d="M50.9682 147.457C48.4452 147.457 46.0732 146.96 43.8523 145.965C41.6314 144.952 39.6769 143.566 37.989 141.807C36.3189 140.03 35.0041 137.969 34.0446 135.624C33.1029 133.279 32.6321 130.773 32.6321 128.108C32.6321 125.443 33.1029 122.938 34.0446 120.593C35.0041 118.247 36.3189 116.195 37.989 114.436C39.6769 112.659 41.6314 111.274 43.8523 110.279C46.0732 109.266 48.4452 108.759 50.9682 108.759C53.9887 108.759 56.7693 109.461 59.31 110.865C61.8508 112.269 63.9563 114.134 65.6264 116.462L60.6959 119.1C59.541 117.643 58.1107 116.479 56.4051 115.609C54.6994 114.738 52.8871 114.303 50.9682 114.303C49.1914 114.303 47.5302 114.667 45.9844 115.396C44.4386 116.124 43.0794 117.119 41.9068 118.381C40.7341 119.642 39.8191 121.108 39.1617 122.778C38.5043 124.448 38.1756 126.225 38.1756 128.108C38.1756 130.009 38.5043 131.795 39.1617 133.465C39.8191 135.118 40.7341 136.583 41.9068 137.863C43.0972 139.124 44.4653 140.119 46.0111 140.848C47.5568 141.558 49.2092 141.914 50.9682 141.914C52.9226 141.914 54.7438 141.478 56.4317 140.608C58.1374 139.719 59.5588 138.547 60.6959 137.09L65.6264 139.782C63.9563 142.109 61.8508 143.975 59.31 145.378C56.7693 146.764 53.9887 147.457 50.9682 147.457ZM86.2537 147.457C83.2687 147.457 80.6658 146.729 78.4448 145.272C76.2417 143.815 74.5271 141.86 73.3011 139.408C72.0929 136.939 71.4889 134.203 71.4889 131.2V109.452H77.0323V131.2C77.0323 133.154 77.3877 134.949 78.0984 136.583C78.8268 138.2 79.8751 139.497 81.2432 140.474C82.6291 141.434 84.2992 141.914 86.2537 141.914C88.2614 141.914 89.9493 141.434 91.3174 140.474C92.6855 139.497 93.716 138.2 94.409 136.583C95.1197 134.949 95.475 133.154 95.475 131.2V109.452H101.018V131.2C101.018 133.456 100.672 135.571 99.9791 137.543C99.2862 139.497 98.2912 141.221 96.9941 142.713C95.6971 144.206 94.1425 145.369 92.3302 146.204C90.5179 147.04 88.4924 147.457 86.2537 147.457ZM120.705 147.457C118.661 147.457 116.698 147.137 114.815 146.498C112.931 145.858 111.288 144.943 109.884 143.753C108.481 142.544 107.477 141.114 106.873 139.462L112.07 137.516C112.372 138.369 112.949 139.133 113.802 139.808C114.673 140.466 115.703 140.981 116.893 141.354C118.102 141.727 119.372 141.914 120.705 141.914C122.126 141.914 123.459 141.683 124.702 141.221C125.964 140.759 126.977 140.119 127.741 139.302C128.522 138.484 128.913 137.525 128.913 136.423C128.913 135.286 128.505 134.354 127.687 133.625C126.888 132.897 125.857 132.319 124.596 131.893C123.352 131.466 122.055 131.147 120.705 130.933C118.093 130.507 115.747 129.885 113.669 129.068C111.608 128.25 109.973 127.104 108.765 125.63C107.574 124.155 106.979 122.236 106.979 119.873C106.979 117.652 107.61 115.715 108.871 114.063C110.151 112.411 111.83 111.131 113.909 110.225C116.005 109.301 118.27 108.839 120.705 108.839C122.712 108.839 124.649 109.159 126.515 109.799C128.398 110.421 130.05 111.336 131.472 112.544C132.911 113.734 133.941 115.182 134.563 116.888L129.313 118.78C129.011 117.91 128.433 117.155 127.581 116.515C126.728 115.858 125.697 115.342 124.489 114.969C123.299 114.596 122.037 114.409 120.705 114.409C119.283 114.392 117.951 114.623 116.707 115.102C115.481 115.564 114.477 116.204 113.695 117.021C112.914 117.839 112.523 118.789 112.523 119.873C112.523 121.206 112.887 122.218 113.615 122.911C114.344 123.604 115.321 124.119 116.547 124.457C117.791 124.777 119.177 125.07 120.705 125.337C123.157 125.727 125.422 126.376 127.501 127.282C129.597 128.188 131.276 129.396 132.538 130.907C133.817 132.399 134.457 134.238 134.457 136.423C134.457 138.627 133.817 140.563 132.538 142.233C131.276 143.886 129.597 145.174 127.501 146.098C125.422 147.004 123.157 147.457 120.705 147.457ZM147.627 146.764L138.086 109.452H143.789L150.772 136.823L157.728 109.452H162.765L169.748 136.823L176.73 109.452H182.434L172.946 146.764H166.576L160.26 122.058L153.943 146.764H147.627Z" fill="#6B5C56"/>
</svg>
