<?xml version="1.0" encoding="UTF-8"?>
<svg id="Layer_1" xmlns="http://www.w3.org/2000/svg" version="1.1" xmlns:xlink="http://www.w3.org/1999/xlink" viewBox="0 0 335 201">
  <!-- Generator: Adobe Illustrator 29.1.0, SVG Export Plug-In . SVG Version: 2.1.0 Build 142)  -->
  <defs>
    <style>
      .st0 {
        fill: #69bca0;
      }

      .st1 {
        fill: #f79939;
      }

      .st2 {
        fill: none;
      }

      .st3 {
        fill: #97d4c5;
      }

      .st4 {
        fill: #6b5c56;
      }

      .st5 {
        clip-path: url(#clippath);
      }
    </style>
    <clipPath id="clippath">
      <rect class="st2" x="54.7" y="18" width="225.7" height="99.5"/>
    </clipPath>
  </defs>
  <g class="st5">
    <g>
      <path class="st1" d="M151.1,48.9c4.9-5,9.8-3.9,14.2.2,4,3.7,10.7-.2,9.1-5.5-.5-1.6-1.6-2.9-3.4-3.9-18-10-52.1,24.5-65.4,44.2-9.4,14-9.9,5.5-12.8-1.7-5.8-14.3-22.2-53.4-34.8-41-14.5,14.3,22.8,65.8,33.7,75,1.9,1.6,4.6,1.7,6.7.3,8.6-5.8,31.7-21.8,50.3-37.9,1.8-1.6,2.4-4.1,1.5-6.3-3.8-9.3-4.6-17.9.9-23.4h0Z"/>
      <path class="st0" d="M277.2,19.2c-18.9-10.5-74.3,47.7-84.8,67.3-7.1,13.1-7.5,2.2-8.8-1.6-2.5-7.7-6.6-18.7-11.6-27.1-.6-1-2.1-1.1-2.8-.1-2.6,3.5-6.1,7.3-10,11.2-4.5,4.4-5.4,11.3-2,16.6,7.9,12.6,18.4,24.4,23.5,30,1.8,2,4.8,2.3,7,.8,18-12.2,110.7-85.3,89.6-97Z"/>
      <path class="st3" d="M95.8,56.3c-1.1,4.6,1.9,8.3,6.6,8.3s8.4-3.7,9.8-8.2c1.5-4.5-1.6-8.5-6.1-8.5s-9.3,3.7-10.3,8.3Z"/>
      <path class="st0" d="M185.9,52.9c-1.1,4.8,2,8.7,6.8,8.7s8.7-3.8,10.2-8.5c1.5-4.7-1.6-8.8-6.4-8.8s-9.6,3.8-10.7,8.6Z"/>
    </g>
  </g>
  <path class="st4" d="M29,157.4c-1.4,0-2.6-.3-3.8-.8-1.2-.5-2.2-1.3-3.2-2.2-.9-1-1.6-2.1-2.1-3.3-.5-1.3-.8-2.6-.8-4s.3-2.8.8-4c.5-1.3,1.2-2.4,2.1-3.3.9-1,2-1.7,3.2-2.2,1.2-.5,2.5-.8,3.8-.8s3.1.4,4.5,1.1c1.4.8,2.5,1.8,3.4,3l-2.7,1.4c-.6-.8-1.4-1.4-2.3-1.9-.9-.5-1.9-.7-2.9-.7s-1.9.2-2.7.6c-.8.4-1.6.9-2.2,1.6-.6.7-1.1,1.5-1.5,2.4-.4.9-.5,1.9-.5,2.9s.2,2,.5,2.9c.4.9.8,1.7,1.5,2.4.6.7,1.4,1.2,2.2,1.6.8.4,1.7.6,2.7.6s2-.2,2.9-.7c.9-.5,1.7-1.1,2.3-1.9l2.7,1.5c-.9,1.3-2,2.3-3.4,3-1.4.7-2.9,1.1-4.5,1.1ZM52.6,148v9h-3v-8.3c0-.6-.2-1.2-.5-1.8-.3-.5-.7-.9-1.2-1.2-.5-.3-1.1-.5-1.8-.5s-1.2.2-1.7.5c-.5.3-.9.7-1.3,1.2-.3.5-.5,1.1-.5,1.8v8.3h-3v-21.5h3v8.7c.5-.6,1.1-1.1,1.8-1.4.7-.3,1.5-.5,2.4-.5s2,.3,2.9.8c.9.5,1.6,1.2,2.1,2.1.5.9.8,1.8.8,2.9ZM54.9,151.6v-9h3v8.2c0,.6.2,1.2.5,1.8.3.5.7.9,1.3,1.3.5.3,1.1.5,1.7.5s1.2-.2,1.7-.5c.5-.3.9-.7,1.2-1.3.3-.5.5-1.1.5-1.8v-8.2h3v14.4s-3,0-3,0v-1.6c-.5.6-1.1,1.1-1.8,1.4-.7.3-1.5.5-2.3.5s-2-.3-2.9-.8c-.9-.5-1.6-1.2-2.1-2.1-.5-.9-.8-1.8-.8-2.9ZM70.8,157v-21.5h3v21.5h-3ZM88.2,142.6h3v14.4h-3v-2.1c-.5.7-1.1,1.3-1.8,1.8-.7.4-1.6.7-2.5.7s-2-.2-3-.6c-.9-.4-1.7-1-2.5-1.7-.7-.7-1.2-1.5-1.6-2.4-.4-.9-.6-1.9-.6-3s.2-2,.6-2.9c.4-.9.9-1.7,1.6-2.4.7-.7,1.5-1.2,2.4-1.6.9-.4,1.9-.6,2.9-.6s2,.2,2.8.7c.8.5,1.5,1.1,2,1.8v-2.1ZM83.8,154.5c.8,0,1.6-.2,2.2-.6.6-.4,1.1-1,1.5-1.7.4-.7.5-1.5.5-2.4s-.2-1.7-.5-2.4c-.4-.7-.8-1.3-1.5-1.7-.6-.4-1.4-.6-2.2-.6s-1.6.2-2.3.6c-.7.4-1.2,1-1.6,1.7-.4.7-.6,1.5-.6,2.4s.2,1.7.6,2.4c.4.7,1,1.3,1.7,1.7.7.4,1.4.6,2.3.6ZM108.1,157.4c-1.1,0-2.2-.2-3.2-.5-1-.3-1.9-.8-2.7-1.5-.8-.7-1.3-1.4-1.6-2.3l2.8-1c.2.5.5.9.9,1.2.5.4,1,.6,1.7.8.7.2,1.3.3,2.1.3s1.5-.1,2.2-.4c.7-.2,1.2-.6,1.6-1,.4-.4.6-1,.6-1.6s-.2-1.1-.7-1.5c-.4-.4-1-.7-1.7-.9-.7-.2-1.4-.4-2.1-.5-1.4-.2-2.7-.6-3.8-1-1.1-.4-2-1.1-2.6-1.9-.6-.8-1-1.8-1-3.1s.3-2.2,1-3.1c.7-.9,1.6-1.6,2.7-2.1,1.1-.5,2.3-.7,3.7-.7s2.1.2,3.1.5c1,.3,1.9.8,2.7,1.5.8.6,1.3,1.4,1.7,2.3l-2.8,1c-.2-.5-.5-.9-.9-1.2-.5-.4-1-.6-1.7-.8-.6-.2-1.3-.3-2-.3-.8,0-1.5.1-2.2.4-.7.2-1.2.6-1.6,1-.4.4-.6,1-.6,1.5s.2,1.3.6,1.6c.4.4.9.7,1.6.8.7.2,1.4.3,2.2.5,1.3.2,2.5.6,3.7,1,1.1.5,2,1.1,2.7,2,.7.8,1,1.8,1,3s-.3,2.2-1,3.1c-.7.9-1.6,1.6-2.7,2.1-1.1.5-2.3.7-3.7.7ZM126.1,145.6h-3v11.4h-3v-11.4s-2.3,0-2.3,0v-3h2.3v-4.5s3,0,3,0v4.5h3v3ZM128.1,151.6v-9h3v8.2c0,.6.2,1.2.5,1.8.3.5.7.9,1.3,1.3.5.3,1.1.5,1.7.5s1.2-.2,1.7-.5c.5-.3.9-.7,1.2-1.3.3-.5.5-1.1.5-1.8v-8.2h3v14.4s-3,0-3,0v-1.6c-.5.6-1.1,1.1-1.8,1.4-.7.3-1.5.5-2.3.5s-2-.3-2.9-.8c-.9-.5-1.6-1.2-2.1-2.1-.5-.9-.8-1.8-.8-2.9ZM154.8,135.5h3v21.5h-3v-2.1c-.5.7-1.1,1.3-1.8,1.8-.8.4-1.6.7-2.7.7s-2-.2-2.9-.6c-.9-.4-1.7-.9-2.4-1.6-.7-.7-1.2-1.5-1.6-2.4-.4-.9-.6-1.9-.6-2.9s.2-2,.6-2.9c.4-.9.9-1.7,1.6-2.4.7-.7,1.5-1.2,2.4-1.6.9-.4,1.9-.6,2.9-.6s1.9.2,2.7.7c.8.4,1.4,1,1.8,1.8v-9.3ZM150.4,154.5c.8,0,1.6-.2,2.2-.6.6-.4,1.1-1,1.5-1.7.4-.7.5-1.5.5-2.4s-.2-1.7-.5-2.4c-.4-.7-.8-1.3-1.5-1.7-.6-.4-1.4-.6-2.2-.6s-1.6.2-2.3.6c-.7.4-1.2,1-1.6,1.7-.4.7-.6,1.5-.6,2.4s.2,1.7.6,2.4c.4.7,1,1.3,1.7,1.7.7.4,1.4.6,2.3.6ZM167.4,157.4c-1.3,0-2.5-.3-3.6-1-1.1-.7-1.9-1.6-2.6-2.7-.6-1.1-1-2.4-1-3.8s.2-2,.6-2.9c.4-.9.9-1.7,1.5-2.4.7-.7,1.4-1.2,2.3-1.6.9-.4,1.8-.6,2.8-.6s2.1.2,3,.7c.9.4,1.7,1.1,2.4,1.9.7.8,1.1,1.7,1.4,2.8.3,1,.4,2.1.3,3.3h-11.1c.1.7.4,1.3.7,1.8.4.5.8.9,1.4,1.2.6.3,1.2.5,1.9.5.7,0,1.4-.2,2-.5.6-.4,1.1-.9,1.5-1.5l3,.7c-.6,1.3-1.4,2.3-2.6,3.1-1.2.8-2.5,1.2-3.9,1.2ZM163.3,148.6h8.2c0-.7-.3-1.3-.7-1.9-.4-.6-.9-1-1.4-1.3-.6-.3-1.2-.5-1.9-.5s-1.3.2-1.9.5c-.6.3-1.1.8-1.4,1.3-.4.6-.6,1.2-.7,1.9ZM189.8,148v9h-3v-8.3c0-.6-.2-1.2-.5-1.8-.3-.5-.7-.9-1.2-1.2-.5-.3-1.1-.5-1.8-.5s-1.2.2-1.7.5c-.5.3-.9.7-1.3,1.2-.3.5-.5,1.1-.5,1.8v8.3h-3v-14.4h3v1.5c.5-.6,1.1-1.1,1.8-1.4.7-.3,1.5-.5,2.4-.5s2,.3,2.9.8c.9.5,1.6,1.2,2.1,2.1.5.9.8,1.8.8,2.9ZM200.2,145.6h-3v11.4h-3v-11.4s-2.3,0-2.3,0v-3h2.3v-4.5s3,0,3,0v4.5h3v3ZM214.1,157l-5.1-20.1h3.1l3.8,14.7,3.7-14.7h2.7l3.8,14.7,3.8-14.7h3.1l-5.1,20.1h-3.4l-3.4-13.3-3.4,13.3h-3.4ZM239.8,157.4c-1.3,0-2.5-.3-3.6-1-1.1-.7-1.9-1.6-2.6-2.7-.6-1.1-1-2.4-1-3.8s.2-2,.6-2.9c.4-.9.9-1.7,1.5-2.4.7-.7,1.4-1.2,2.3-1.6.9-.4,1.8-.6,2.8-.6s2.1.2,3,.7c.9.4,1.7,1.1,2.4,1.9.7.8,1.1,1.7,1.4,2.8.3,1,.4,2.1.3,3.3h-11.1c.1.7.4,1.3.7,1.8.4.5.8.9,1.4,1.2.6.3,1.2.5,1.9.5.7,0,1.4-.2,2-.5.6-.4,1.1-.9,1.5-1.5l3,.7c-.6,1.3-1.4,2.3-2.6,3.1-1.2.8-2.5,1.2-3.9,1.2ZM235.7,148.6h8.2c0-.7-.3-1.3-.7-1.9-.4-.6-.9-1-1.4-1.3-.6-.3-1.2-.5-1.9-.5s-1.3.2-1.9.5c-.6.3-1.1.8-1.4,1.3-.4.6-.6,1.2-.7,1.9ZM249.1,157v-21.5h3v21.5h-3ZM255.5,157v-21.5h3v21.5h-3ZM274.8,148v9h-3v-8.3c0-.6-.2-1.2-.5-1.8-.3-.5-.7-.9-1.2-1.2-.5-.3-1.1-.5-1.8-.5s-1.2.2-1.7.5c-.5.3-.9.7-1.3,1.2-.3.5-.5,1.1-.5,1.8v8.3h-3v-14.4h3v1.5c.5-.6,1.1-1.1,1.8-1.4.7-.3,1.5-.5,2.4-.5s2,.3,2.9.8c.9.5,1.6,1.2,2.1,2.1.5.9.8,1.8.8,2.9ZM283.7,157.4c-1.3,0-2.5-.3-3.6-1-1.1-.7-1.9-1.6-2.6-2.7-.6-1.1-1-2.4-1-3.8s.2-2,.6-2.9c.4-.9.9-1.7,1.5-2.4.7-.7,1.4-1.2,2.3-1.6.9-.4,1.8-.6,2.8-.6s2.1.2,3,.7c.9.4,1.7,1.1,2.4,1.9.7.8,1.1,1.7,1.4,2.8.3,1,.4,2.1.3,3.3h-11.1c.1.7.4,1.3.7,1.8.4.5.8.9,1.4,1.2.6.3,1.2.5,1.9.5.7,0,1.4-.2,2-.5.6-.4,1.1-.9,1.5-1.5l3,.7c-.6,1.3-1.4,2.3-2.6,3.1-1.2.8-2.5,1.2-3.9,1.2ZM279.6,148.6h8.2c0-.7-.3-1.3-.7-1.9-.4-.6-.9-1-1.5-1.3-.6-.3-1.2-.5-1.9-.5s-1.3.2-1.9.5c-.6.3-1.1.8-1.4,1.3-.4.6-.6,1.2-.7,1.9ZM297.5,157.3c-.8,0-1.5-.2-2.2-.5-.7-.3-1.3-.6-1.9-1-.5-.5-.9-1-1.2-1.6l2.5-1.1c.1.3.3.5.6.8.3.2.7.5,1.1.6.4.2.9.2,1.3.2s.9,0,1.2-.2c.4-.1.7-.3,1-.6.2-.3.4-.6.4-1s-.1-.7-.4-1c-.3-.2-.6-.4-1-.5s-.8-.2-1.3-.4c-.9-.2-1.8-.5-2.6-.9-.8-.4-1.4-.8-1.9-1.4-.5-.6-.7-1.3-.7-2.1s.2-1.7.7-2.4c.5-.7,1.1-1.2,2-1.6.8-.4,1.7-.5,2.6-.5s2.2.2,3.2.7c1,.5,1.7,1.2,2.2,2l-2.4,1.4c-.1-.3-.4-.5-.6-.8-.3-.2-.6-.4-1-.5-.4-.1-.7-.2-1.1-.2-.5,0-.9,0-1.4.2-.4.1-.7.3-1,.6-.2.3-.4.6-.4,1.1s.1.7.4.9c.3.2.7.4,1.1.5.5.1.9.3,1.4.4.9.3,1.6.6,2.4,1,.7.4,1.4.9,1.8,1.4.5.6.7,1.3.7,2.1,0,.9-.3,1.7-.8,2.4-.5.7-1.2,1.2-2.1,1.6-.9.4-1.8.5-2.7.4ZM310,157.3c-.8,0-1.5-.2-2.2-.5-.7-.3-1.3-.6-1.9-1-.5-.5-.9-1-1.2-1.6l2.5-1.1c.1.3.3.5.6.8.3.2.7.5,1.1.6.4.2.9.2,1.3.2s.9,0,1.2-.2c.4-.1.7-.3,1-.6.2-.3.4-.6.4-1s-.1-.7-.4-1c-.3-.2-.6-.4-1-.5s-.8-.2-1.3-.4c-.9-.2-1.8-.5-2.6-.9-.8-.4-1.4-.8-1.9-1.4-.5-.6-.7-1.3-.7-2.1s.2-1.7.7-2.4c.5-.7,1.1-1.2,2-1.6.8-.4,1.7-.5,2.6-.5s2.2.2,3.2.7c1,.5,1.7,1.2,2.2,2l-2.4,1.4c-.1-.3-.4-.5-.6-.8-.3-.2-.6-.4-1-.5-.4-.1-.7-.2-1.1-.2-.5,0-.9,0-1.4.2-.4.1-.7.3-1,.6-.2.3-.4.6-.4,1.1s.1.7.4.9c.3.2.7.4,1.1.5.5.1.9.3,1.4.4.9.3,1.7.6,2.4,1,.7.4,1.3.9,1.8,1.4.5.6.7,1.3.7,2.1,0,.9-.3,1.7-.8,2.4-.5.7-1.2,1.2-2.1,1.6s-1.8.5-2.7.4Z"/>
  <path class="st4" d="M78.7,179.2c-.9,0-1.7-.2-2.3-.7-.7-.4-1.2-1-1.5-1.8-.3-.7-.5-1.6-.5-2.5v-6.6h1.1v6.6c0,.7.1,1.3.4,1.9.3.6.6,1,1.1,1.4.5.3,1.1.5,1.8.5s1.3-.2,1.8-.5c.5-.4.9-.8,1.1-1.4.2-.6.4-1.2.4-1.9v-6.6h1.1v6.6c0,.7-.1,1.3-.3,1.9-.2.6-.5,1.1-.9,1.6-.4.5-.8.8-1.4,1.1-.5.3-1.1.4-1.8.4ZM91.9,174v5h-1.1v-4.8c0-.4-.1-.8-.3-1.2-.2-.4-.5-.6-.9-.9-.4-.2-.8-.3-1.2-.3s-.8.1-1.2.3c-.4.2-.6.5-.9.9-.2.4-.3.8-.3,1.2v4.8h-1.1v-8.1h1.1v1.1c.3-.4.7-.7,1.1-1,.5-.2,1-.4,1.5-.4s1.2.1,1.7.4c.5.3.9.7,1.2,1.2.3.5.4,1.1.4,1.7ZM93.6,170.9h1.1v8.1h-1.1v-8.1ZM94.1,169.5c-.2,0-.3,0-.5-.2-.1-.1-.2-.3-.2-.5s0-.3.2-.5c.1-.1.3-.2.5-.2s.3,0,.5.2c.1.1.2.3.2.5s0,.3-.2.5c-.1.1-.3.2-.5.2ZM100.4,179h-1.4l-2.9-8.1h1.2l2.5,6.8,2.5-6.8h1.2l-2.9,8.1ZM107.9,179.2c-.7,0-1.4-.2-2-.6-.6-.4-1.1-.9-1.5-1.5-.4-.6-.5-1.4-.5-2.1s.1-1.1.3-1.7c.2-.5.5-1,.9-1.4.4-.4.8-.7,1.3-.9.5-.2,1-.3,1.6-.3s1.1.1,1.6.4c.5.2.9.6,1.3,1,.4.4.6.9.8,1.5.2.6.3,1.2.2,1.8h-6.8c0,.5.2,1,.5,1.4.3.4.6.7,1,1,.4.2.9.4,1.4.4.5,0,1-.1,1.5-.4.4-.3.8-.7,1-1.2l1.1.3c-.3.7-.8,1.3-1.5,1.8-.7.5-1.4.7-2.2.7ZM105.1,174.5h5.7c0-.5-.2-1-.5-1.4-.3-.4-.6-.8-1-1-.4-.3-.9-.4-1.4-.4s-1,.1-1.4.4c-.4.2-.8.6-1,1-.3.4-.4.9-.5,1.4ZM113.3,179v-8.1h1.1v1.1c.3-.4.7-.7,1.1-1,.5-.2,1-.4,1.5-.4s.6,0,.9.1l-.5,1.1c-.2,0-.4-.1-.7-.1-.4,0-.8.1-1.2.3-.4.2-.6.5-.9.9-.2.4-.3.8-.3,1.2v4.8h-1.1ZM121.5,179.2c-.4,0-.9,0-1.3-.2s-.8-.4-1.1-.6c-.3-.3-.5-.6-.7-.9l1-.4c0,.2.2.4.5.6.2.2.5.3.8.4.3.1.6.2.9.2s.6,0,.9-.2c.3-.1.5-.3.7-.5.2-.2.3-.4.3-.7s0-.5-.3-.7c-.2-.2-.4-.3-.7-.4-.3-.1-.6-.2-.9-.3-.6-.2-1.1-.3-1.5-.5-.4-.2-.8-.4-1-.7-.2-.3-.4-.7-.4-1.1s.1-.9.4-1.3c.3-.4.6-.6,1.1-.8.5-.2.9-.3,1.4-.3s1.3.1,1.8.4c.5.3.9.7,1.2,1.1l-.9.5c0-.2-.2-.4-.5-.6-.2-.2-.4-.3-.7-.4-.3,0-.5-.1-.8-.1-.3,0-.7,0-1,.2-.3.1-.5.3-.7.5-.2.2-.3.5-.3.8s0,.5.3.7c.2.2.4.3.7.4.3,0,.7.2,1,.3.5.2,1,.3,1.4.5.4.2.8.4,1,.7.3.3.4.7.4,1.1,0,.5-.1.9-.4,1.3-.3.4-.7.6-1.1.8-.5.2-1,.3-1.5.3ZM125.9,170.9h1.1v8.1h-1.1v-8.1ZM126.4,169.5c-.2,0-.3,0-.5-.2-.1-.1-.2-.3-.2-.5s0-.3.2-.5c.1-.1.3-.2.5-.2s.3,0,.5.2c.1.1.2.3.2.5s0,.3-.2.5c-.1.1-.3.2-.5.2ZM133.1,172.1h-1.9v6.9h-1.1v-6.9s-1.5,0-1.5,0v-1.1h1.5v-2.5s1.1,0,1.1,0v2.5h1.9v1.1ZM139.9,170.9h1.2l-4.4,12.1h-1.2l1.5-4-2.9-8.1h1.2l2.2,6.5,2.4-6.5ZM148.1,179l2.2-11.3h.8l3.2,8.3,3.1-8.3h.8l2.2,11.3h-1.2l-1.7-8.6-3,7.9h-.7l-3-7.9-1.7,8.6h-1.1ZM162.2,170.9h1.1v8.1h-1.1v-8.1ZM162.8,169.5c-.2,0-.3,0-.5-.2-.1-.1-.2-.3-.2-.5s0-.3.2-.5c.1-.1.3-.2.5-.2s.3,0,.5.2c.1.1.2.3.2.5s0,.3-.2.5c-.1.1-.3.2-.5.2ZM172.3,174v5h-1.1v-4.8c0-.4-.1-.8-.3-1.2-.2-.4-.5-.6-.9-.9-.4-.2-.8-.3-1.2-.3s-.8.1-1.2.3c-.4.2-.6.5-.9.9-.2.4-.3.8-.3,1.2v4.8h-1.1v-8.1h1.1v1.1c.3-.4.7-.7,1.1-1,.5-.2,1-.4,1.5-.4s1.2.1,1.7.4c.5.3.9.7,1.2,1.2.3.5.4,1.1.4,1.7ZM180.4,166.9h1.1v12.1h-1.1v-1.5c-.3.5-.7.9-1.2,1.3-.5.3-1.1.5-1.7.5s-1.1-.1-1.6-.3c-.5-.2-1-.5-1.4-.9-.4-.4-.7-.8-.9-1.4-.2-.5-.3-1.1-.3-1.6s.1-1.1.3-1.6c.2-.5.5-1,.9-1.4s.8-.7,1.4-.9c.5-.2,1.1-.3,1.6-.3s1.2.2,1.7.5c.5.3.9.7,1.2,1.2v-5.5ZM177.5,178.1c.6,0,1.1-.1,1.5-.4.4-.3.7-.7,1-1.1.2-.5.3-1,.3-1.6s-.1-1.1-.3-1.6c-.2-.5-.5-.9-1-1.1-.4-.3-.9-.4-1.5-.4s-1.1.1-1.6.4c-.5.3-.8.7-1.1,1.1-.3.5-.4,1-.4,1.6s.1,1.1.4,1.6c.3.5.7.9,1.1,1.1.5.3,1,.4,1.5.4ZM192.6,179.2c-.8,0-1.5-.2-2.2-.5-.7-.3-1.3-.7-1.8-1.3-.5-.5-.9-1.2-1.2-1.9-.3-.7-.4-1.5-.4-2.3s.1-1.6.4-2.3c.3-.7.7-1.3,1.2-1.9.5-.5,1.1-1,1.8-1.3.7-.3,1.4-.5,2.2-.5s1.8.2,2.5.6c.8.4,1.4,1,1.9,1.7l-1,.5c-.4-.5-.9-1-1.5-1.3-.6-.3-1.2-.5-1.9-.5s-1.2.1-1.7.4c-.5.2-1,.6-1.4,1-.4.4-.7.9-.9,1.5s-.3,1.2-.3,1.8.1,1.3.3,1.8c.2.6.5,1.1,1,1.5.4.4.9.8,1.4,1,.5.2,1.1.4,1.7.4s1.3-.2,1.9-.5c.6-.3,1.1-.7,1.5-1.3l1,.5c-.5.7-1.1,1.3-1.9,1.7-.8.4-1.6.6-2.5.6ZM201.8,179.2c-.7,0-1.4-.2-2-.6-.6-.4-1.1-.9-1.5-1.5-.4-.6-.5-1.4-.5-2.1s.1-1.1.3-1.7c.2-.5.5-1,.9-1.4.4-.4.8-.7,1.3-.9.5-.2,1-.3,1.6-.3s1.4.2,2,.6c.6.4,1.1.9,1.5,1.5.4.6.5,1.4.5,2.1s-.1,1.1-.3,1.6c-.2.5-.5,1-.9,1.4-.4.4-.8.7-1.3.9-.5.2-1,.3-1.6.3ZM201.8,178.1c.5,0,1-.1,1.5-.4.4-.3.8-.7,1-1.1.3-.5.4-1,.4-1.5s-.1-1.1-.4-1.6c-.3-.5-.6-.9-1.1-1.1-.4-.3-.9-.4-1.5-.4s-1,.1-1.5.4c-.4.3-.8.7-1,1.1-.3.5-.4,1-.4,1.6s.1,1.1.4,1.6c.3.5.6.8,1.1,1.1.4.3.9.4,1.5.4ZM207.2,179v-8.1h1.1v1.1c.3-.4.7-.7,1.1-1,.5-.2.9-.4,1.5-.4s1.2.2,1.7.5c.5.3.9.7,1.2,1.2.3-.5.7-.9,1.2-1.2.5-.3,1.1-.5,1.7-.5s1.2.1,1.7.4c.5.3.9.7,1.2,1.2.3.5.4,1.1.4,1.7v5h-1.1v-4.7c0-.4-.1-.8-.3-1.2-.2-.4-.5-.7-.8-.9-.3-.2-.7-.3-1.2-.3s-.8.1-1.2.3c-.3.2-.6.5-.8.9-.2.4-.3.8-.3,1.2v4.7h-1.1v-4.7c0-.5-.1-.9-.3-1.2-.2-.4-.5-.7-.8-.9-.4-.2-.7-.3-1.2-.3s-.8.1-1.2.3c-.4.2-.6.5-.8.9-.2.4-.3.8-.3,1.2v4.7h-1.1ZM222.7,183h-1.1v-12.1h1.1v1.5c.3-.5.7-.9,1.1-1.2.5-.3,1.1-.5,1.7-.5s1.1.1,1.6.3c.5.2,1,.5,1.4.9.4.4.7.8.9,1.3.2.5.3,1.1.3,1.6s-.1,1.1-.3,1.7c-.2.5-.5,1-.9,1.4-.4.4-.8.7-1.4.9-.5.2-1.1.3-1.6.3s-1.2-.2-1.7-.5c-.5-.3-.9-.7-1.1-1.2v5.5ZM225.5,171.8c-.6,0-1.1.1-1.5.4-.4.3-.7.7-1,1.1-.2.5-.3,1-.3,1.6s.1,1.1.3,1.6c.2.5.5.9,1,1.1.4.3.9.4,1.5.4s1.1-.1,1.5-.4c.5-.3.9-.7,1.1-1.1.3-.5.4-1,.4-1.6s-.1-1.1-.4-1.6c-.3-.5-.7-.9-1.1-1.1-.5-.3-1-.4-1.6-.4ZM237.7,170.9h1.1v8.1h-1.1v-1.5c-.3.5-.7.9-1.1,1.2-.5.3-1,.5-1.7.5s-1.1-.1-1.7-.3c-.5-.2-1-.5-1.4-.9-.4-.4-.7-.8-.9-1.4-.2-.5-.3-1.1-.3-1.7s.1-1.1.3-1.6c.2-.5.5-1,.9-1.3.4-.4.8-.7,1.3-.9.5-.2,1.1-.3,1.6-.3s1.3.2,1.8.5c.5.3.9.7,1.2,1.3v-1.5ZM234.8,178.1c.6,0,1.1-.1,1.5-.4.4-.3.7-.7,1-1.1.2-.5.3-1,.3-1.6s-.1-1.1-.3-1.6c-.2-.5-.5-.9-1-1.1-.4-.3-.9-.4-1.5-.4s-1.1.1-1.6.4c-.5.3-.8.7-1.1,1.1-.3.5-.4,1-.4,1.6s.1,1.1.4,1.6c.3.5.7.9,1.1,1.1.5.3,1,.4,1.5.4ZM247.5,174v5h-1.1v-4.8c0-.4-.1-.8-.3-1.2-.2-.4-.5-.6-.9-.9-.4-.2-.8-.3-1.2-.3s-.8.1-1.2.3c-.4.2-.6.5-.9.9-.2.4-.3.8-.3,1.2v4.8h-1.1v-8.1h1.1v1.1c.3-.4.7-.7,1.1-1,.5-.2,1-.4,1.5-.4s1.2.1,1.7.4c.5.3.9.7,1.2,1.2.3.5.4,1.1.4,1.7ZM249.1,170.9h1.1v8.1h-1.1v-8.1ZM249.7,169.5c-.2,0-.3,0-.5-.2-.1-.1-.2-.3-.2-.5s0-.3.2-.5c.1-.1.3-.2.5-.2s.3,0,.5.2c.1.1.2.3.2.5s0,.3-.2.5c-.1.1-.3.2-.5.2ZM255.7,179.2c-.7,0-1.4-.2-2-.6-.6-.4-1.1-.9-1.5-1.5-.4-.6-.5-1.4-.5-2.1s.1-1.1.3-1.7c.2-.5.5-1,.9-1.4.4-.4.8-.7,1.3-.9.5-.2,1-.3,1.6-.3s1.4.2,2,.6c.6.4,1.1.9,1.5,1.5.4.6.5,1.4.5,2.1s-.1,1.1-.3,1.6c-.2.5-.5,1-.9,1.4-.4.4-.8.7-1.3.9-.5.2-1,.3-1.6.3ZM255.7,178.1c.5,0,1-.1,1.5-.4.4-.3.8-.7,1-1.1.3-.5.4-1,.4-1.5s-.1-1.1-.4-1.6c-.3-.5-.6-.9-1-1.1-.4-.3-.9-.4-1.5-.4s-1,.1-1.5.4c-.4.3-.8.7-1,1.1-.3.5-.4,1-.4,1.6s.1,1.1.4,1.6c.3.5.6.8,1.1,1.1.4.3.9.4,1.5.4ZM268.1,174v5h-1.1v-4.8c0-.4-.1-.8-.3-1.2-.2-.4-.5-.6-.9-.9-.4-.2-.8-.3-1.2-.3s-.8.1-1.2.3c-.4.2-.6.5-.9.9-.2.4-.3.8-.3,1.2v4.8h-1.1v-8.1h1.1v1.1c.3-.4.7-.7,1.1-1,.5-.2,1-.4,1.5-.4s1.2.1,1.7.4c.5.3.9.7,1.2,1.2.3.5.4,1.1.4,1.7Z"/>
</svg>