<svg width="920" height="88" viewBox="0 0 920 88" fill="none" xmlns="http://www.w3.org/2000/svg">
<g clip-path="url(#clip0_800_3177)">
<path d="M75.0099 31.4714C78.2222 28.2591 81.3631 28.9146 84.2379 31.5882C86.8531 34.0153 91.2011 31.4519 90.1563 28.045C89.8448 27.0261 89.1245 26.1695 87.9369 25.5076C76.2558 19.0441 54.1008 41.3808 45.4763 54.2235C39.3892 63.2893 39.0582 57.8186 37.1503 53.1268C33.3864 43.8209 22.7307 18.4535 14.5929 26.5005C5.19617 35.7804 29.3694 69.1882 36.4624 75.152C37.6954 76.1838 39.4606 76.2747 40.7909 75.3727C46.3783 71.5958 61.382 61.2062 73.4329 50.7516C74.5945 49.7458 74.9969 48.1039 74.4128 46.6827C71.9339 40.654 71.4147 35.0796 75.0228 31.4714H75.0099Z" fill="#F79939"/>
<path d="M156.862 12.25C144.59 5.45555 108.671 43.2178 101.805 55.9371C97.2109 64.4448 96.9188 57.3972 96.1077 54.9118C94.4723 49.9084 91.8311 42.77 88.5993 37.3059C88.197 36.6245 87.2301 36.579 86.7563 37.215C85.0496 39.4928 82.8237 41.9458 80.2604 44.4702C77.3661 47.3256 76.782 51.8228 78.9495 55.2622C84.0632 63.4065 90.8642 71.09 94.2257 74.7046C95.4003 75.9701 97.3147 76.1907 98.7424 75.2173C110.43 67.2937 170.607 19.8557 156.862 12.25Z" fill="#69BCA0"/>
<path d="M39.1588 36.3193C38.471 39.3174 40.3983 41.7315 43.4419 41.7315C46.3102 41.7315 48.8866 39.3369 49.8275 36.4102C50.775 33.4834 48.7957 30.9136 45.8625 30.9136C42.9292 30.9136 39.8467 33.3212 39.1588 36.3193Z" fill="#97D4C5"/>
<path d="M97.6446 34.1197C96.9308 37.2347 98.9296 39.7461 102.09 39.7461C105.25 39.7461 107.742 37.2606 108.729 34.2171C109.715 31.1735 107.677 28.5063 104.608 28.5063C101.538 28.5063 98.3585 31.0048 97.6446 34.1197Z" fill="#69BCA0"/>
</g>
<path d="M197.613 69.1039C194.25 69.1039 191.088 68.4407 188.127 67.1144C185.167 65.7643 182.561 63.9169 180.311 61.5721C178.085 59.2036 176.332 56.4562 175.053 53.3298C173.798 50.2034 173.17 46.8638 173.17 43.3111C173.17 39.7583 173.798 36.4188 175.053 33.2924C176.332 30.1659 178.085 27.4303 180.311 25.0855C182.561 22.7171 185.167 20.8696 188.127 19.5433C191.088 18.1932 194.25 17.5182 197.613 17.5182C201.64 17.5182 205.346 18.4538 208.733 20.3249C212.12 22.196 214.927 24.6829 217.153 27.7856L210.581 31.3028C209.041 29.3607 207.134 27.8093 204.861 26.6487C202.587 25.4882 200.171 24.9079 197.613 24.9079C195.245 24.9079 193.03 25.3934 190.969 26.3645C188.909 27.3356 187.097 28.662 185.534 30.3436C183.971 32.0252 182.751 33.9792 181.875 36.2056C180.998 38.432 180.56 40.8005 180.56 43.3111C180.56 45.8453 180.998 48.2257 181.875 50.452C182.751 52.6547 183.971 54.6087 185.534 56.3141C187.121 57.9957 188.944 59.322 191.005 60.2931C193.066 61.2405 195.268 61.7142 197.613 61.7142C200.218 61.7142 202.646 61.1339 204.896 59.9734C207.17 58.7891 209.065 57.2259 210.581 55.2838L217.153 58.872C214.927 61.9747 212.12 64.4617 208.733 66.3328C205.346 68.1802 201.64 69.1039 197.613 69.1039ZM256.041 45.9045V68.1802H248.651V47.7164C248.651 46.1296 248.26 44.6848 247.478 43.3821C246.721 42.0794 245.69 41.0492 244.388 40.2912C243.109 39.5096 241.664 39.1188 240.053 39.1188C238.49 39.1188 237.057 39.5096 235.754 40.2912C234.452 41.0492 233.41 42.0794 232.628 43.3821C231.846 44.6848 231.456 46.1296 231.456 47.7164V68.1802H224.066V14.8892H231.456V36.4188C232.687 34.9503 234.203 33.7897 236.003 32.9371C237.803 32.0844 239.745 31.6581 241.83 31.6581C244.459 31.6581 246.851 32.2976 249.006 33.5766C251.161 34.8556 252.867 36.5727 254.122 38.728C255.401 40.8834 256.041 43.2755 256.041 45.9045ZM261.711 54.8574V32.6529H269.101V53.0455C269.101 54.6324 269.492 56.0772 270.273 57.3799C271.055 58.6825 272.097 59.7247 273.4 60.5063C274.702 61.2642 276.135 61.6431 277.698 61.6431C279.285 61.6431 280.718 61.2642 281.997 60.5063C283.3 59.7247 284.33 58.6825 285.088 57.3799C285.87 56.0772 286.26 54.6324 286.26 53.0455V32.6529H293.65L293.686 68.1802H286.296L286.26 64.3432C285.052 65.8117 283.548 66.9722 281.748 67.8249C279.948 68.6776 278.018 69.1039 275.957 69.1039C273.328 69.1039 270.936 68.4644 268.781 67.1854C266.626 65.9064 264.908 64.1893 263.63 62.034C262.351 59.8786 261.711 57.4865 261.711 54.8574ZM301.088 68.1802V14.8892H308.478V68.1802H301.088ZM344.133 32.6529H351.522V68.1802H344.097L343.813 63.0287C342.771 64.8525 341.362 66.3209 339.585 67.4341C337.809 68.5473 335.713 69.1039 333.297 69.1039C330.692 69.1039 328.24 68.6183 325.943 67.6473C323.645 66.6525 321.62 65.2788 319.868 63.5261C318.139 61.7734 316.789 59.7602 315.817 57.4865C314.846 55.189 314.361 52.7258 314.361 50.0968C314.361 47.5625 314.835 45.1822 315.782 42.9558C316.729 40.7057 318.044 38.7399 319.725 37.0582C321.407 35.3766 323.349 34.0621 325.552 33.1147C327.778 32.1436 330.159 31.6581 332.693 31.6581C335.275 31.6581 337.548 32.2502 339.514 33.4345C341.504 34.595 343.15 36.0872 344.452 37.9109L344.133 32.6529ZM333.119 61.9629C335.204 61.9629 337.027 61.4537 338.59 60.4352C340.154 59.3931 341.362 57.9957 342.214 56.243C343.091 54.4903 343.529 52.5482 343.529 50.4165C343.529 48.2612 343.091 46.3072 342.214 44.5545C341.338 42.8018 340.118 41.4163 338.555 40.3978C337.015 39.3557 335.204 38.8346 333.119 38.8346C331.059 38.8346 329.176 39.3557 327.47 40.3978C325.765 41.4399 324.415 42.8374 323.42 44.59C322.426 46.3427 321.928 48.2849 321.928 50.4165C321.928 52.5718 322.437 54.5258 323.456 56.2785C324.498 58.0075 325.86 59.3931 327.541 60.4352C329.247 61.4537 331.106 61.9629 333.119 61.9629ZM393.41 69.1039C390.686 69.1039 388.069 68.6776 385.558 67.8249C383.048 66.9722 380.857 65.7525 378.986 64.1656C377.114 62.555 375.776 60.6484 374.971 58.4457L381.899 55.8522C382.301 56.9891 383.071 58.0075 384.208 58.9075C385.369 59.7839 386.742 60.4707 388.329 60.9681C389.94 61.4655 391.633 61.7142 393.41 61.7142C395.304 61.7142 397.081 61.4063 398.739 60.7905C400.42 60.1747 401.77 59.322 402.789 58.2325C403.831 57.143 404.352 55.864 404.352 54.3956C404.352 52.8797 403.807 51.6363 402.718 50.6652C401.652 49.6941 400.278 48.9244 398.597 48.3559C396.939 47.7875 395.21 47.3612 393.41 47.077C389.928 46.5085 386.802 45.6795 384.03 44.59C381.283 43.5005 379.104 41.9729 377.493 40.007C375.907 38.0412 375.113 35.4832 375.113 32.3331C375.113 29.3725 375.954 26.7909 377.636 24.5882C379.341 22.3855 381.579 20.6802 384.35 19.4722C387.145 18.2406 390.165 17.6248 393.41 17.6248C396.086 17.6248 398.668 18.0511 401.155 18.9038C403.665 19.7328 405.868 20.9525 407.763 22.5631C409.681 24.15 411.055 26.0803 411.884 28.3541L404.885 30.8765C404.482 29.7159 403.713 28.7093 402.576 27.8567C401.439 26.9803 400.065 26.2935 398.455 25.7961C396.868 25.2987 395.186 25.05 393.41 25.05C391.515 25.0263 389.739 25.3342 388.081 25.9737C386.446 26.5895 385.108 27.4422 384.066 28.5317C383.024 29.6212 382.503 30.8883 382.503 32.3331C382.503 34.1095 382.988 35.4595 383.959 36.3832C384.93 37.3069 386.233 37.9938 387.867 38.4438C389.525 38.8701 391.373 39.2609 393.41 39.6162C396.678 40.1373 399.698 41.0018 402.469 42.2097C405.264 43.4176 407.502 45.0282 409.184 47.0414C410.889 49.031 411.742 51.4823 411.742 54.3956C411.742 57.3325 410.889 59.9142 409.184 62.1405C407.502 64.3432 405.264 66.0604 402.469 67.292C399.698 68.4999 396.678 69.1039 393.41 69.1039ZM437.808 40.0425H430.348L430.312 68.1802H422.922L422.958 40.0425H417.309V32.6529H422.958L422.922 21.4973H430.312L430.348 32.6529H437.808V40.0425ZM442.748 54.8574V32.6529H450.137V53.0455C450.137 54.6324 450.528 56.0772 451.31 57.3799C452.091 58.6825 453.133 59.7247 454.436 60.5063C455.739 61.2642 457.172 61.6431 458.735 61.6431C460.322 61.6431 461.755 61.2642 463.034 60.5063C464.336 59.7247 465.367 58.6825 466.125 57.3799C466.906 56.0772 467.297 54.6324 467.297 53.0455V32.6529H474.687L474.722 68.1802H467.333L467.297 64.3432C466.089 65.8117 464.585 66.9722 462.785 67.8249C460.985 68.6776 459.055 69.1039 456.994 69.1039C454.365 69.1039 451.973 68.4644 449.818 67.1854C447.662 65.9064 445.945 64.1893 444.666 62.034C443.387 59.8786 442.748 57.4865 442.748 54.8574ZM509.037 14.8892H516.427V68.1802H509.037V62.9577C507.877 64.8051 506.361 66.2972 504.49 67.4341C502.619 68.5473 500.428 69.1039 497.917 69.1039C495.335 69.1039 492.92 68.6183 490.67 67.6473C488.42 66.6762 486.43 65.338 484.701 63.6327C482.996 61.9037 481.657 59.9142 480.686 57.6641C479.715 55.414 479.23 52.9982 479.23 50.4165C479.23 47.8349 479.715 45.419 480.686 43.1689C481.657 40.8952 482.996 38.9057 484.701 37.2004C486.43 35.4714 488.42 34.1213 490.67 33.1502C492.92 32.1792 495.335 31.6936 497.917 31.6936C500.428 31.6936 502.619 32.2621 504.49 33.3989C506.361 34.5121 507.877 35.9806 509.037 37.8043V14.8892ZM497.988 61.9629C500.072 61.9629 501.896 61.4537 503.459 60.4352C505.023 59.3931 506.231 57.9957 507.083 56.243C507.96 54.4903 508.398 52.5482 508.398 50.4165C508.398 48.2612 507.96 46.3072 507.083 44.5545C506.207 42.8018 504.987 41.4163 503.424 40.3978C501.884 39.3557 500.072 38.8346 497.988 38.8346C495.928 38.8346 494.045 39.3557 492.339 40.3978C490.658 41.4399 489.308 42.8374 488.289 44.59C487.294 46.3427 486.797 48.2849 486.797 50.4165C486.797 52.5718 487.306 54.5258 488.325 56.2785C489.367 58.0075 490.729 59.3931 492.41 60.4352C494.116 61.4537 495.975 61.9629 497.988 61.9629ZM540.084 69.1039C536.816 69.1039 533.831 68.2631 531.131 66.5814C528.455 64.8998 526.311 62.6498 524.701 59.8313C523.114 56.9891 522.321 53.8508 522.321 50.4165C522.321 47.8112 522.782 45.3835 523.706 43.1334C524.63 40.8597 525.897 38.8701 527.508 37.1648C529.142 35.4358 531.037 34.0858 533.192 33.1147C535.347 32.1436 537.645 31.6581 540.084 31.6581C542.808 31.6581 545.307 32.2265 547.58 33.3634C549.854 34.4766 551.796 36.028 553.407 38.0175C555.018 39.9833 556.202 42.2571 556.96 44.8387C557.718 47.3967 557.943 50.1205 557.635 53.01H530.243C530.551 54.6443 531.143 56.1246 532.019 57.4509C532.92 58.7536 534.056 59.7839 535.43 60.5418C536.828 61.2997 538.379 61.6905 540.084 61.7142C541.884 61.7142 543.519 61.2642 544.987 60.3642C546.479 59.4641 547.699 58.2207 548.646 56.6338L556.143 58.3746C554.721 61.5247 552.578 64.1064 549.712 66.1196C546.846 68.1091 543.637 69.1039 540.084 69.1039ZM529.994 47.3612H550.174C549.937 45.6559 549.333 44.1163 548.362 42.7426C547.415 41.3452 546.219 40.2439 544.774 39.4386C543.353 38.6096 541.79 38.1951 540.084 38.1951C538.403 38.1951 536.839 38.5978 535.395 39.403C533.974 40.2083 532.789 41.3097 531.842 42.7071C530.918 44.0808 530.302 45.6322 529.994 47.3612ZM595.493 45.9045V68.1802H588.103V47.7164C588.103 46.1296 587.712 44.6848 586.931 43.3821C586.173 42.0794 585.143 41.0492 583.84 40.2912C582.561 39.5096 581.116 39.1188 579.506 39.1188C577.942 39.1188 576.509 39.5096 575.207 40.2912C573.904 41.0492 572.862 42.0794 572.08 43.3821C571.299 44.6848 570.908 46.1296 570.908 47.7164V68.1802H563.518V32.6529H570.908V36.4188C572.14 34.9503 573.655 33.7897 575.456 32.9371C577.256 32.0844 579.198 31.6581 581.282 31.6581C583.911 31.6581 586.303 32.2976 588.459 33.5766C590.614 34.8556 592.319 36.5727 593.574 38.728C594.853 40.8834 595.493 43.2755 595.493 45.9045ZM621.343 40.0425H613.882L613.847 68.1802H606.457L606.493 40.0425H600.844V32.6529H606.493L606.457 21.4973H613.847L613.882 32.6529H621.343V40.0425ZM655.716 68.1802L642.997 18.4419H650.6L659.908 54.9285L669.18 18.4419H675.895L685.203 54.9285L694.511 18.4419H702.114L689.467 68.1802H680.976L672.556 35.2464L664.136 68.1802H655.716ZM719.317 69.1039C716.048 69.1039 713.064 68.2631 710.364 66.5814C707.687 64.8998 705.544 62.6498 703.933 59.8313C702.346 56.9891 701.553 53.8508 701.553 50.4165C701.553 47.8112 702.015 45.3835 702.939 43.1334C703.862 40.8597 705.129 38.8701 706.74 37.1648C708.374 35.4358 710.269 34.0858 712.424 33.1147C714.58 32.1436 716.877 31.6581 719.317 31.6581C722.04 31.6581 724.539 32.2265 726.813 33.3634C729.087 34.4766 731.029 36.028 732.639 38.0175C734.25 39.9833 735.434 42.2571 736.192 44.8387C736.95 47.3967 737.175 50.1205 736.867 53.01H709.476C709.784 54.6443 710.376 56.1246 711.252 57.4509C712.152 58.7536 713.289 59.7839 714.663 60.5418C716.06 61.2997 717.611 61.6905 719.317 61.7142C721.117 61.7142 722.751 61.2642 724.219 60.3642C725.712 59.4641 726.931 58.2207 727.879 56.6338L735.375 58.3746C733.954 61.5247 731.81 64.1064 728.945 66.1196C726.079 68.1091 722.869 69.1039 719.317 69.1039ZM709.227 47.3612H729.406C729.17 45.6559 728.566 44.1163 727.595 42.7426C726.647 41.3452 725.451 40.2439 724.006 39.4386C722.585 38.6096 721.022 38.1951 719.317 38.1951C717.635 38.1951 716.072 38.5978 714.627 39.403C713.206 40.2083 712.022 41.3097 711.074 42.7071C710.151 44.0808 709.535 45.6322 709.227 47.3612ZM742.265 68.1802V14.8892H749.655V68.1802H742.265ZM758.155 68.1802V14.8892H765.545V68.1802H758.155ZM806.02 45.9045V68.1802H798.63V47.7164C798.63 46.1296 798.24 44.6848 797.458 43.3821C796.7 42.0794 795.67 41.0492 794.367 40.2912C793.088 39.5096 791.643 39.1188 790.033 39.1188C788.47 39.1188 787.037 39.5096 785.734 40.2912C784.431 41.0492 783.389 42.0794 782.608 43.3821C781.826 44.6848 781.435 46.1296 781.435 47.7164V68.1802H774.045V32.6529H781.435V36.4188C782.667 34.9503 784.183 33.7897 785.983 32.9371C787.783 32.0844 789.725 31.6581 791.809 31.6581C794.438 31.6581 796.83 32.2976 798.986 33.5766C801.141 34.8556 802.846 36.5727 804.102 38.728C805.381 40.8834 806.02 43.2755 806.02 45.9045ZM828.05 69.1039C824.781 69.1039 821.797 68.2631 819.097 66.5814C816.42 64.8998 814.277 62.6498 812.666 59.8313C811.08 56.9891 810.286 53.8508 810.286 50.4165C810.286 47.8112 810.748 45.3835 811.672 43.1334C812.595 40.8597 813.862 38.8701 815.473 37.1648C817.107 35.4358 819.002 34.0858 821.157 33.1147C823.313 32.1436 825.61 31.6581 828.05 31.6581C830.773 31.6581 833.272 32.2265 835.546 33.3634C837.82 34.4766 839.762 36.028 841.372 38.0175C842.983 39.9833 844.167 42.2571 844.925 44.8387C845.683 47.3967 845.908 50.1205 845.6 53.01H818.209C818.517 54.6443 819.109 56.1246 819.985 57.4509C820.885 58.7536 822.022 59.7839 823.396 60.5418C824.793 61.2997 826.344 61.6905 828.05 61.7142C829.85 61.7142 831.484 61.2642 832.952 60.3642C834.445 59.4641 835.664 58.2207 836.612 56.6338L844.108 58.3746C842.687 61.5247 840.543 64.1064 837.678 66.1196C834.812 68.1091 831.602 69.1039 828.05 69.1039ZM817.96 47.3612H838.139C837.903 45.6559 837.299 44.1163 836.328 42.7426C835.38 41.3452 834.184 40.2439 832.739 39.4386C831.318 38.6096 829.755 38.1951 828.05 38.1951C826.368 38.1951 824.805 38.5978 823.36 39.403C821.939 40.2083 820.755 41.3097 819.807 42.7071C818.884 44.0808 818.268 45.6322 817.96 47.3612ZM862.281 68.8552C860.41 68.7368 858.586 68.3578 856.81 67.7183C855.033 67.0788 853.47 66.2143 852.12 65.1248C850.794 64.0116 849.799 62.709 849.136 61.2168L855.424 58.5167C855.732 59.1562 856.265 59.7839 857.023 60.3997C857.804 61.0155 858.716 61.5247 859.758 61.9274C860.801 62.3063 861.89 62.4958 863.027 62.4958C864.14 62.4958 865.17 62.3419 866.118 62.034C867.089 61.7024 867.882 61.205 868.498 60.5418C869.114 59.8786 869.422 59.0852 869.422 58.1615C869.422 57.1193 869.067 56.3141 868.356 55.7456C867.669 55.1535 866.805 54.7035 865.763 54.3956C864.72 54.0877 863.678 53.7916 862.636 53.5074C860.315 52.9863 858.183 52.2758 856.241 51.3758C854.323 50.452 852.795 49.2796 851.658 47.8586C850.521 46.4138 849.953 44.6493 849.953 42.565C849.953 40.2912 850.569 38.3254 851.8 36.6674C853.032 34.9858 854.642 33.695 856.632 32.795C858.645 31.8949 860.789 31.4449 863.062 31.4449C865.905 31.4449 868.51 32.0489 870.878 33.2568C873.247 34.4648 875.059 36.1227 876.314 38.2306L870.452 41.7123C870.097 41.0018 869.564 40.3623 868.853 39.7939C868.143 39.2254 867.338 38.7754 866.438 38.4438C865.538 38.0885 864.602 37.8872 863.631 37.8398C862.423 37.7925 861.298 37.9346 860.256 38.2662C859.237 38.5741 858.42 39.0715 857.804 39.7583C857.189 40.4452 856.881 41.3215 856.881 42.3873C856.881 43.4295 857.248 44.2111 857.982 44.7321C858.716 45.2295 859.64 45.6322 860.753 45.9401C861.89 46.248 863.051 46.5914 864.235 46.9704C866.343 47.6335 868.32 48.4507 870.168 49.4218C872.015 50.3691 873.507 51.5415 874.644 52.939C875.781 54.3364 876.326 56.0417 876.279 58.0549C876.279 60.2813 875.604 62.2353 874.254 63.9169C872.927 65.5985 871.198 66.8775 869.067 67.7538C866.935 68.6302 864.673 68.9973 862.281 68.8552ZM893.02 68.8552C891.149 68.7368 889.325 68.3578 887.549 67.7183C885.773 67.0788 884.21 66.2143 882.859 65.1248C881.533 64.0116 880.538 62.709 879.875 61.2168L886.164 58.5167C886.471 59.1562 887.004 59.7839 887.762 60.3997C888.544 61.0155 889.456 61.5247 890.498 61.9274C891.54 62.3063 892.629 62.4958 893.766 62.4958C894.88 62.4958 895.91 62.3419 896.857 62.034C897.828 61.7024 898.622 61.205 899.238 60.5418C899.853 59.8786 900.161 59.0852 900.161 58.1615C900.161 57.1193 899.806 56.3141 899.095 55.7456C898.409 55.1535 897.544 54.7035 896.502 54.3956C895.46 54.0877 894.418 53.7916 893.376 53.5074C891.054 52.9863 888.923 52.2758 886.981 51.3758C885.062 50.452 883.534 49.2796 882.398 47.8586C881.261 46.4138 880.692 44.6493 880.692 42.565C880.692 40.2912 881.308 38.3254 882.54 36.6674C883.771 34.9858 885.382 33.695 887.371 32.795C889.385 31.8949 891.528 31.4449 893.802 31.4449C896.644 31.4449 899.249 32.0489 901.618 33.2568C903.986 34.4648 905.798 36.1227 907.054 38.2306L901.192 41.7123C900.836 41.0018 900.303 40.3623 899.593 39.7939C898.882 39.2254 898.077 38.7754 897.177 38.4438C896.277 38.0885 895.341 37.8872 894.37 37.8398C893.162 37.7925 892.037 37.9346 890.995 38.2662C889.977 38.5741 889.16 39.0715 888.544 39.7583C887.928 40.4452 887.62 41.3215 887.62 42.3873C887.62 43.4295 887.987 44.2111 888.721 44.7321C889.456 45.2295 890.379 45.6322 891.493 45.9401C892.629 46.248 893.79 46.5914 894.974 46.9704C897.082 47.6335 899.06 48.4507 900.907 49.4218C902.755 50.3691 904.247 51.5415 905.384 52.939C906.521 54.3364 907.065 56.0417 907.018 58.0549C907.018 60.2813 906.343 62.2353 904.993 63.9169C903.667 65.5985 901.938 66.8775 899.806 67.7538C897.674 68.6302 895.412 68.9973 893.02 68.8552Z" fill="#6B5C56"/>
<defs>
<clipPath id="clip0_800_3177">
<rect width="146.441" height="64.5572" fill="white" transform="translate(12.4492 11.4385)"/>
</clipPath>
</defs>
</svg>
