<svg width="307" height="156" viewBox="0 0 307 156" fill="none" xmlns="http://www.w3.org/2000/svg">
<g clip-path="url(#clip0_800_3173)">
<path d="M134.182 56.4899C139.974 50.6976 145.637 51.8795 150.821 56.7005C155.537 61.0768 163.377 56.4548 161.493 50.3115C160.931 48.4744 159.632 46.9298 157.491 45.7362C136.428 34.0816 96.4797 74.358 80.9284 97.5152C69.9525 113.862 69.3557 103.998 65.9155 95.5376C59.1286 78.7577 39.9148 33.0167 25.2412 47.5265C8.29747 64.2596 51.8854 124.499 64.6751 135.252C66.8984 137.113 70.0812 137.277 72.48 135.65C82.5549 128.84 109.609 110.106 131.338 91.2549C133.433 89.4412 134.158 86.4807 133.105 83.9181C128.635 73.0474 127.699 62.9959 134.205 56.4899H134.182Z" fill="#F79939"/>
<path d="M281.774 21.8301C259.646 9.5787 194.879 77.6695 182.498 100.604C174.214 115.945 173.687 103.237 172.225 98.7555C169.276 89.7337 164.513 76.8621 158.686 67.0095C157.96 65.7808 156.217 65.6989 155.363 66.8456C152.285 70.9529 148.272 75.376 143.65 79.9279C138.431 85.0765 137.378 93.1856 141.286 99.3874C150.507 114.073 162.77 127.927 168.831 134.445C170.949 136.727 174.401 137.125 176.975 135.369C198.05 121.082 306.557 35.5442 281.774 21.8301Z" fill="#69BCA0"/>
<path d="M69.5364 65.2312C68.296 70.6373 71.7713 74.9902 77.2593 74.9902C82.4314 74.9902 87.0769 70.6724 88.7736 65.395C90.482 60.1177 86.913 55.4839 81.624 55.4839C76.3349 55.4839 70.7767 59.8251 69.5364 65.2312Z" fill="#97D4C5"/>
<path d="M174.991 61.2643C173.704 66.881 177.308 71.4095 183.007 71.4095C188.705 71.4095 193.199 66.9278 194.977 61.4399C196.756 55.9519 193.082 51.1426 187.547 51.1426C182.012 51.1426 176.278 55.6476 174.991 61.2643Z" fill="#69BCA0"/>
</g>
<defs>
<clipPath id="clip0_800_3173">
<rect width="264.055" height="116.406" fill="white" transform="translate(21.3789 20.3672)"/>
</clipPath>
</defs>
</svg>
