<?xml version="1.0" encoding="UTF-8"?>
<svg id="Layer_1" xmlns="http://www.w3.org/2000/svg" version="1.1" xmlns:xlink="http://www.w3.org/1999/xlink" viewBox="0 0 305 200">
  <!-- Generator: Adobe Illustrator 29.1.0, SVG Export Plug-In . SVG Version: 2.1.0 Build 142)  -->
  <defs>
    <style>
      .st0 {
        fill: #69bca0;
      }

      .st1 {
        fill: #f79939;
      }

      .st2 {
        fill: none;
      }

      .st3 {
        fill: #97d4c5;
      }

      .st4 {
        fill: #6b5c56;
      }

      .st5 {
        clip-path: url(#clippath);
      }
    </style>
    <clipPath id="clippath">
      <rect class="st2" x="33.2" y="17.7" width="237.5" height="104.7"/>
    </clipPath>
  </defs>
  <g class="st5">
    <g>
      <path class="st1" d="M134.7,50.2c5.2-5.2,10.3-4.1,15,.2,4.2,3.9,11.3-.2,9.6-5.7-.5-1.7-1.7-3-3.6-4.1-18.9-10.5-54.9,25.7-68.9,46.6-9.9,14.7-10.4,5.8-13.5-1.8-6.1-15.1-23.4-56.2-36.6-43.2-15.2,15.1,24,69.2,35.5,78.9,2,1.7,4.9,1.8,7,.4,9.1-6.1,33.4-23,52.9-39.9,1.9-1.6,2.5-4.3,1.6-6.6-4-9.8-4.9-18.8,1-24.7h0Z"/>
      <path class="st0" d="M267.5,19c-19.9-11-78.2,50.2-89.3,70.9-7.5,13.8-7.9,2.4-9.2-1.7-2.7-8.1-6.9-19.7-12.2-28.6-.7-1.1-2.2-1.2-3-.1-2.8,3.7-6.4,7.7-10.5,11.8-4.7,4.6-5.6,11.9-2.1,17.5,8.3,13.2,19.3,25.7,24.8,31.5,1.9,2.1,5,2.4,7.3.8,19-12.9,116.6-89.8,94.3-102.1Z"/>
      <path class="st3" d="M76.6,58.1c-1.1,4.9,2,8.8,6.9,8.8s8.8-3.9,10.4-8.6c1.5-4.7-1.7-8.9-6.4-8.9s-9.8,3.9-10.9,8.8Z"/>
      <path class="st0" d="M171.4,54.5c-1.2,5.1,2.1,9.1,7.2,9.1s9.2-4,10.8-9c1.6-4.9-1.7-9.3-6.7-9.3s-10.1,4.1-11.3,9.1Z"/>
    </g>
  </g>
  <path class="st4" d="M33.9,172.5c-1.9,0-3.7-.4-5.4-1.1-1.7-.8-3.2-1.8-4.4-3.2-1.3-1.3-2.3-2.9-3-4.7-.7-1.8-1.1-3.7-1.1-5.7s.4-3.9,1.1-5.7c.7-1.8,1.7-3.3,3-4.7,1.3-1.3,2.8-2.4,4.4-3.2,1.7-.8,3.5-1.2,5.4-1.2s4.4.5,6.3,1.6c1.9,1.1,3.5,2.5,4.8,4.2l-3.7,2c-.9-1.1-2-2-3.3-2.6-1.3-.7-2.7-1-4.1-1s-2.6.3-3.8.8c-1.2.6-2.2,1.3-3.1,2.3-.9,1-1.6,2.1-2.1,3.3-.5,1.3-.7,2.6-.7,4s.2,2.8.7,4.1c.5,1.3,1.2,2.4,2.1,3.3.9,1,1.9,1.7,3.1,2.3,1.2.5,2.4.8,3.8.8s2.9-.3,4.1-1c1.3-.7,2.4-1.6,3.2-2.7l3.7,2c-1.3,1.8-2.9,3.2-4.8,4.2-1.9,1.1-4,1.6-6.3,1.6ZM60.7,172.5c-2.3,0-4.2-.6-5.9-1.7-1.7-1.1-3-2.6-3.9-4.4-.9-1.9-1.4-3.9-1.4-6.2v-16.5h4.2v16.5c0,1.5.3,2.8.8,4.1.6,1.2,1.3,2.2,2.4,3,1.1.7,2.3,1.1,3.8,1.1s2.8-.4,3.8-1.1c1-.7,1.8-1.7,2.3-3,.5-1.2.8-2.6.8-4.1v-16.5h4.2v16.5c0,1.7-.3,3.3-.8,4.8-.5,1.5-1.3,2.8-2.3,3.9-1,1.1-2.2,2-3.5,2.6-1.4.6-2.9.9-4.6.9ZM86.8,172.5c-1.5,0-3-.2-4.5-.7-1.4-.5-2.7-1.2-3.7-2.1-1.1-.9-1.8-2-2.3-3.3l3.9-1.5c.2.6.7,1.2,1.3,1.7.7.5,1.4.9,2.3,1.2.9.3,1.9.4,2.9.4s2.1-.2,3-.5c1-.3,1.7-.8,2.3-1.5.6-.6.9-1.3.9-2.2s-.3-1.6-.9-2.1c-.6-.6-1.4-1-2.3-1.3-.9-.3-1.9-.6-3-.7-2-.3-3.8-.8-5.3-1.4-1.6-.6-2.8-1.5-3.7-2.6-.9-1.1-1.4-2.6-1.4-4.4s.5-3.2,1.4-4.4c1-1.3,2.2-2.2,3.8-2.9,1.6-.7,3.3-1.1,5.2-1.1s3,.2,4.4.7c1.4.5,2.7,1.2,3.8,2.1,1.1.9,1.9,2,2.3,3.3l-4,1.4c-.2-.7-.7-1.2-1.3-1.7-.6-.5-1.4-.9-2.3-1.2-.9-.3-1.9-.4-2.9-.4-1.1,0-2.1.2-3,.5-.9.4-1.7.8-2.3,1.5-.6.6-.9,1.3-.9,2.2s.3,1.8.8,2.3c.6.5,1.3.9,2.2,1.2.9.2,2,.5,3.2.7,1.9.3,3.6.8,5.2,1.5,1.6.7,2.9,1.6,3.8,2.7,1,1.1,1.5,2.5,1.5,4.2s-.5,3.1-1.5,4.4c-1,1.3-2.2,2.2-3.8,2.9-1.6.7-3.3,1-5.2,1ZM107.2,171.9l-7.2-28.3h4.3l5.3,20.8,5.3-20.8h3.8l5.3,20.8,5.3-20.8h4.3l-7.2,28.3h-4.8l-4.8-18.7-4.8,18.7h-4.8Z"/>
  <path class="st4" d="M151.1,154.7c-1,0-1.9-.3-2.7-.8-.8-.5-1.3-1.2-1.8-2.1-.4-.9-.6-1.8-.6-2.9v-7.6h1.3v7.6c0,.8.1,1.5.4,2.2.3.7.7,1.2,1.3,1.6.6.4,1.2.6,2,.6s1.5-.2,2.1-.6c.6-.4,1-.9,1.3-1.6.3-.7.4-1.4.4-2.2v-7.6h1.3v7.6c0,.8-.1,1.5-.4,2.2-.2.7-.6,1.3-1,1.8-.4.5-1,.9-1.6,1.2-.6.3-1.3.4-2.1.4ZM166.4,148.7v5.8h-1.3v-5.5c0-.5-.1-1-.4-1.4-.2-.4-.6-.8-1-1-.4-.2-.9-.4-1.4-.4s-1,.1-1.4.4c-.4.2-.8.6-1,1-.2.4-.4.9-.4,1.4v5.5h-1.3v-9.3h1.3v1.3c.3-.5.8-.9,1.3-1.1.5-.3,1.1-.4,1.7-.4s1.3.2,1.9.5c.6.3,1,.8,1.4,1.4.3.6.5,1.2.5,1.9ZM168.3,145.1h1.3v9.3h-1.3v-9.3ZM168.9,143.5c-.2,0-.4,0-.5-.2-.1-.1-.2-.3-.2-.5s0-.4.2-.5c.1-.1.3-.2.5-.2s.4,0,.5.2c.1.1.2.3.2.5s0,.4-.2.5c-.1.1-.3.2-.5.2ZM176.2,154.4h-1.7l-3.4-9.4h1.4l2.8,7.8,2.8-7.8h1.4l-3.4,9.4ZM184.9,154.7c-.9,0-1.6-.2-2.4-.7-.7-.4-1.3-1-1.7-1.8-.4-.7-.6-1.6-.6-2.5s.1-1.3.4-1.9c.2-.6.6-1.1,1-1.6.4-.5.9-.8,1.5-1.1.6-.3,1.2-.4,1.8-.4s1.3.1,1.9.4c.6.3,1.1.7,1.5,1.1.4.5.7,1.1,1,1.7.2.7.3,1.4.3,2.1h-7.9c0,.6.3,1.1.6,1.6.3.5.7.8,1.2,1.1.5.3,1,.4,1.6.4.6,0,1.2-.2,1.7-.5.5-.3.9-.8,1.2-1.3l1.3.3c-.4.8-.9,1.5-1.7,2-.8.5-1.6.8-2.5.8ZM181.6,149.2h6.6c0-.6-.2-1.1-.5-1.6-.3-.5-.7-.9-1.2-1.2-.5-.3-1-.4-1.6-.4s-1.1.1-1.6.4c-.5.3-.9.7-1.2,1.1-.3.5-.5,1-.6,1.6ZM191.1,154.4v-9.3h1.3v1.3c.3-.5.8-.9,1.3-1.1s1.1-.4,1.7-.4.7,0,1,.1l-.5,1.3c-.3,0-.5-.1-.8-.1-.5,0-1,.1-1.4.4-.4.2-.8.6-1,1-.2.4-.4.9-.4,1.4v5.5h-1.3ZM200.6,154.6c-.5,0-1-.1-1.5-.3-.5-.2-.9-.4-1.3-.7-.4-.3-.6-.6-.8-1l1.1-.5c0,.2.3.5.6.7.3.2.6.4.9.5.3.1.7.2,1,.2s.7,0,1.1-.2c.3-.1.6-.3.8-.5.2-.2.3-.5.3-.8s-.1-.6-.3-.8c-.2-.2-.5-.4-.8-.5-.3-.1-.7-.2-1.1-.3-.7-.2-1.2-.4-1.7-.6s-.9-.5-1.2-.8c-.3-.3-.4-.8-.4-1.3s.2-1.1.5-1.5c.3-.4.7-.7,1.3-1,.5-.2,1.1-.3,1.7-.3s1.4.2,2.1.5c.6.3,1.1.8,1.4,1.3l-1.1.6c-.1-.3-.3-.5-.5-.7-.2-.2-.5-.3-.8-.4-.3-.1-.6-.2-.9-.2-.4,0-.8,0-1.1.2-.3.1-.6.3-.8.5-.2.2-.3.5-.3.9s.1.6.3.8c.2.2.5.3.8.4.4.1.8.2,1.2.4.6.2,1.1.4,1.6.6.5.2.9.5,1.2.9.3.3.5.8.4,1.3,0,.6-.2,1-.5,1.5-.3.4-.8.7-1.3,1-.5.2-1.1.3-1.7.3ZM205.6,145.1h1.3v9.3h-1.3v-9.3ZM206.3,143.5c-.2,0-.4,0-.5-.2-.1-.1-.2-.3-.2-.5s0-.4.2-.5c.1-.1.3-.2.5-.2s.4,0,.5.2c.1.1.2.3.2.5s0,.4-.2.5c-.1.1-.3.2-.5.2ZM213.9,146.4h-2.2v8h-1.3v-8s-1.7,0-1.7,0v-1.3h1.7v-2.9s1.3,0,1.3,0v2.9h2.2v1.3ZM221.8,145.1h1.4l-5.1,14h-1.4l1.7-4.7-3.4-9.3h1.4l2.6,7.5,2.8-7.5ZM146,173.4l2.5-13.1h1l3.7,9.6,3.6-9.6h1l2.5,13.1h-1.3l-1.9-10-3.5,9.1h-.8l-3.5-9.1-1.9,10h-1.3ZM162.4,164.1h1.3v9.3h-1.3v-9.3ZM163,162.5c-.2,0-.4,0-.5-.2-.1-.1-.2-.3-.2-.5s0-.4.2-.5c.1-.1.3-.2.5-.2s.4,0,.5.2c.1.1.2.3.2.5s0,.4-.2.5c-.1.1-.3.2-.5.2ZM174,167.7v5.8h-1.3v-5.5c0-.5-.1-1-.4-1.4-.2-.4-.6-.8-1-1-.4-.2-.9-.4-1.4-.4s-1,.1-1.4.4c-.4.2-.8.6-1,1-.2.4-.4.9-.4,1.4v5.5h-1.3v-9.3h1.3v1.3c.3-.5.8-.9,1.3-1.1s1.1-.4,1.7-.4,1.3.2,1.9.5c.6.3,1,.8,1.4,1.4.3.6.5,1.2.5,1.9ZM183.4,159.4h1.3v14h-1.3v-1.7c-.3.6-.8,1.1-1.3,1.4-.6.4-1.2.5-2,.5s-1.3-.1-1.9-.4c-.6-.3-1.1-.6-1.6-1.1-.4-.5-.8-1-1.1-1.6-.3-.6-.4-1.2-.4-1.9s.1-1.3.4-1.9c.3-.6.6-1.1,1.1-1.6s1-.8,1.6-1.1c.6-.3,1.2-.4,1.9-.4s1.4.2,2,.6c.6.4,1,.8,1.3,1.4v-6.4ZM180.1,172.4c.7,0,1.2-.2,1.7-.5.5-.3.8-.8,1.1-1.3.3-.6.4-1.2.4-1.8s-.1-1.3-.4-1.8c-.3-.6-.6-1-1.1-1.3-.5-.3-1-.5-1.7-.5s-1.3.2-1.8.5c-.5.3-1,.8-1.3,1.3-.3.6-.5,1.2-.5,1.8s.2,1.3.5,1.8c.3.5.8,1,1.3,1.3.5.3,1.1.5,1.8.5ZM197.5,173.7c-.9,0-1.7-.2-2.5-.5-.8-.4-1.5-.8-2.1-1.5-.6-.6-1-1.3-1.4-2.2-.3-.8-.5-1.7-.5-2.6s.2-1.8.5-2.6c.3-.8.8-1.5,1.4-2.2.6-.6,1.3-1.1,2.1-1.5.8-.4,1.6-.5,2.5-.5s2,.2,2.9.7c.9.5,1.6,1.1,2.2,2l-1.2.6c-.5-.6-1-1.1-1.8-1.5-.7-.4-1.4-.6-2.2-.6s-1.4.1-2,.4c-.6.3-1.2.7-1.6,1.2s-.8,1.1-1.1,1.7c-.3.7-.4,1.4-.4,2.1s.1,1.5.4,2.1c.3.7.6,1.2,1.1,1.7.5.5,1,.9,1.6,1.2.6.3,1.3.4,2,.4s1.6-.2,2.2-.6c.7-.4,1.3-.9,1.7-1.5l1.2.6c-.6.8-1.3,1.5-2.2,2-.9.5-1.9.7-2.9.7ZM208.1,173.7c-.9,0-1.6-.2-2.4-.7-.7-.4-1.3-1-1.7-1.8-.4-.7-.6-1.6-.6-2.5s.1-1.3.4-1.9c.2-.6.6-1.1,1-1.6.4-.5.9-.8,1.5-1.1.6-.3,1.2-.4,1.8-.4s1.6.2,2.3.7c.7.4,1.3,1,1.7,1.8.4.7.6,1.6.6,2.5s-.1,1.3-.4,1.9c-.2.6-.6,1.1-1,1.6-.4.4-.9.8-1.5,1.1-.6.3-1.2.4-1.8.4ZM208.1,172.4c.6,0,1.2-.2,1.7-.5.5-.3.9-.8,1.2-1.3.3-.5.4-1.1.4-1.8s-.1-1.3-.4-1.8c-.3-.6-.7-1-1.2-1.3-.5-.3-1.1-.5-1.7-.5s-1.2.2-1.7.5c-.5.3-.9.8-1.2,1.3-.3.5-.4,1.1-.4,1.8s.2,1.3.5,1.8c.3.5.7,1,1.2,1.3.5.3,1.1.5,1.7.5ZM214.4,173.4v-9.3h1.3v1.3c.3-.5.8-.9,1.3-1.1s1.1-.4,1.7-.4,1.3.2,1.9.5c.6.3,1,.8,1.4,1.4.3-.6.8-1,1.4-1.4.6-.3,1.2-.5,1.9-.5s1.3.2,1.9.5c.6.3,1,.8,1.4,1.4.3.6.5,1.2.5,1.9v5.8h-1.3v-5.5c0-.5-.1-1-.4-1.4-.2-.4-.6-.8-1-1-.4-.3-.9-.4-1.4-.4s-1,.1-1.4.4c-.4.2-.7.6-1,1-.2.4-.4.9-.4,1.4v5.5h-1.3v-5.5c0-.5-.1-1-.4-1.4-.2-.4-.6-.8-1-1-.4-.2-.9-.4-1.4-.4s-.9.1-1.4.4c-.4.3-.7.6-1,1-.2.4-.4.9-.4,1.4v5.5h-1.3ZM232.3,178.1h-1.3v-14h1.3v1.7c.3-.6.8-1.1,1.3-1.4.6-.4,1.2-.6,2-.6s1.3.1,1.9.4c.6.3,1.1.6,1.6,1.1.4.4.8,1,1.1,1.6.3.6.4,1.2.4,1.9s-.1,1.3-.4,1.9c-.3.6-.6,1.1-1.1,1.6-.4.4-1,.8-1.6,1.1-.6.3-1.2.4-1.9.4s-1.4-.2-2-.6-1-.8-1.3-1.4v6.4ZM235.6,165.1c-.7,0-1.2.2-1.7.5-.5.3-.8.8-1.1,1.3-.3.5-.4,1.2-.4,1.8s.1,1.3.4,1.8c.3.6.6,1,1.1,1.3.5.3,1.1.5,1.7.5s1.2-.2,1.8-.5c.5-.3,1-.8,1.3-1.3.3-.6.5-1.2.5-1.9s-.2-1.3-.5-1.8c-.3-.6-.8-1-1.3-1.3-.5-.3-1.1-.5-1.8-.5ZM249.7,164.1h1.3v9.3h-1.3v-1.7c-.4.6-.8,1.1-1.3,1.4-.5.4-1.2.5-2,.5s-1.3-.1-1.9-.4c-.6-.3-1.1-.6-1.6-1.1-.5-.5-.8-1-1.1-1.6-.3-.6-.4-1.2-.4-1.9s.1-1.3.4-1.9c.3-.6.6-1.1,1-1.6.4-.4,1-.8,1.5-1,.6-.3,1.2-.4,1.9-.4s1.5.2,2,.6c.6.4,1,.9,1.4,1.4v-1.7ZM246.3,172.4c.7,0,1.2-.2,1.7-.5.5-.3.8-.8,1.1-1.3.3-.6.4-1.2.4-1.8s-.1-1.3-.4-1.8c-.3-.6-.6-1-1.1-1.3-.5-.3-1-.5-1.7-.5s-1.3.2-1.8.5c-.5.3-1,.8-1.3,1.3-.3.6-.5,1.2-.5,1.8s.2,1.3.5,1.8c.3.5.8,1,1.3,1.3.5.3,1.1.5,1.8.5ZM261,167.7v5.8h-1.3v-5.5c0-.5-.1-1-.4-1.4-.2-.4-.6-.8-1-1-.4-.2-.9-.4-1.4-.4s-1,.1-1.4.4c-.4.2-.8.6-1,1-.2.4-.4.9-.4,1.4v5.5h-1.3v-9.3h1.3v1.3c.3-.5.8-.9,1.3-1.1.5-.3,1.1-.4,1.7-.4s1.3.2,1.9.5c.6.3,1,.8,1.4,1.4.3.6.5,1.2.5,1.9ZM262.8,164.1h1.3v9.3h-1.3v-9.3ZM263.5,162.5c-.2,0-.4,0-.5-.2-.1-.1-.2-.3-.2-.5s0-.4.2-.5c.1-.1.3-.2.5-.2s.4,0,.5.2c.1.1.2.3.2.5s0,.4-.2.5c-.1.1-.3.2-.5.2ZM270.4,173.7c-.9,0-1.6-.2-2.4-.7-.7-.4-1.3-1-1.7-1.8-.4-.7-.6-1.6-.6-2.5s.1-1.3.4-1.9c.2-.6.6-1.1,1-1.6.4-.5.9-.8,1.5-1.1.6-.3,1.2-.4,1.8-.4s1.6.2,2.3.7c.7.4,1.3,1,1.7,1.8.4.7.6,1.6.6,2.5s-.1,1.3-.4,1.9c-.2.6-.6,1.1-1,1.6-.4.4-.9.8-1.5,1.1-.6.3-1.2.4-1.8.4ZM270.4,172.4c.6,0,1.2-.2,1.7-.5.5-.3.9-.8,1.2-1.3.3-.5.4-1.1.4-1.8s-.1-1.3-.4-1.8c-.3-.6-.7-1-1.2-1.3-.5-.3-1.1-.5-1.7-.5s-1.2.2-1.7.5c-.5.3-.9.8-1.2,1.3-.3.5-.4,1.1-.4,1.8s.2,1.3.5,1.8c.3.5.7,1,1.2,1.3.5.3,1.1.5,1.7.5ZM284.8,167.7v5.8h-1.3v-5.5c0-.5-.1-1-.4-1.4-.2-.4-.6-.8-1-1-.4-.2-.9-.4-1.4-.4s-1,.1-1.4.4c-.4.2-.8.6-1,1-.2.4-.4.9-.4,1.4v5.5h-1.3v-9.3h1.3v1.3c.3-.5.8-.9,1.3-1.1.5-.3,1.1-.4,1.7-.4s1.3.2,1.9.5c.6.3,1,.8,1.4,1.4.3.6.5,1.2.5,1.9Z"/>
</svg>