<svg width="456" height="108" viewBox="0 0 456 108" fill="none" xmlns="http://www.w3.org/2000/svg">
<g clip-path="url(#clip0_800_3178)">
<path d="M93.1114 39.5163C97.1299 35.4978 101.059 36.3177 104.655 39.6624C107.927 42.6985 113.366 39.4919 112.059 35.2299C111.669 33.9554 110.768 32.8838 109.283 32.0558C94.6701 23.9702 66.955 51.9125 56.1661 67.9782C48.5514 79.3191 48.1374 72.4756 45.7507 66.6062C41.0422 54.9649 27.7123 23.2314 17.5323 33.2978C5.77731 44.9067 36.0171 86.6984 44.8901 94.1589C46.4326 95.4497 48.6407 95.5634 50.3049 94.435C57.2945 89.7102 76.0635 76.7132 91.1388 63.635C92.5919 62.3767 93.0952 60.3229 92.3646 58.545C89.2635 51.0033 88.614 44.0299 93.1277 39.5163H93.1114Z" fill="#F79939"/>
<path d="M195.505 15.4702C180.154 6.97055 135.22 54.2096 126.632 70.121C120.884 80.7638 120.519 71.9475 119.504 68.8383C117.458 62.5793 114.154 53.6494 110.111 46.814C109.608 45.9616 108.398 45.9048 107.806 46.7004C105.671 49.5498 102.886 52.6184 99.6795 55.7764C96.0589 59.3483 95.3283 64.9741 98.0397 69.2767C104.437 79.4649 112.944 89.0766 117.15 93.5984C118.619 95.1814 121.014 95.4574 122.8 94.2397C137.42 84.3276 212.699 24.9845 195.505 15.4702Z" fill="#69BCA0"/>
<path d="M48.2602 45.5802C47.3997 49.3308 49.8108 52.3507 53.6181 52.3507C57.2063 52.3507 60.4292 49.3551 61.6063 45.6939C62.7916 42.0326 60.3155 38.8179 56.6462 38.8179C52.9768 38.8179 49.1207 41.8297 48.2602 45.5802Z" fill="#97D4C5"/>
<path d="M121.423 42.8278C120.53 46.7245 123.031 49.8662 126.984 49.8662C130.938 49.8662 134.055 46.7569 135.289 42.9496C136.523 39.1422 133.974 35.8057 130.134 35.8057C126.294 35.8057 122.316 38.9311 121.423 42.8278Z" fill="#69BCA0"/>
</g>
<path d="M243.215 83.7159C239.431 83.7159 235.874 82.9699 232.543 81.4777C229.213 79.9589 226.282 77.8806 223.751 75.2427C221.246 72.5782 219.274 69.4873 217.835 65.9702C216.423 62.453 215.717 58.696 215.717 54.6992C215.717 50.7024 216.423 46.9454 217.835 43.4283C219.274 39.9111 221.246 36.8336 223.751 34.1957C226.282 31.5311 229.213 29.4528 232.543 27.9607C235.874 26.4419 239.431 25.6825 243.215 25.6825C247.745 25.6825 251.915 26.735 255.725 28.84C259.535 30.945 262.693 33.7427 265.197 37.2332L257.803 41.1901C256.071 39.0051 253.926 37.2599 251.368 35.9543C248.81 34.6486 246.093 33.9958 243.215 33.9958C240.55 33.9958 238.059 34.5421 235.741 35.6345C233.423 36.727 231.384 38.2191 229.626 40.1109C227.867 42.0027 226.495 44.201 225.509 46.7056C224.523 49.2103 224.03 51.8748 224.03 54.6992C224.03 57.5503 224.523 60.2281 225.509 62.7328C226.495 65.2108 227.867 67.409 229.626 69.3275C231.411 71.2193 233.463 72.7114 235.781 73.8039C238.099 74.8697 240.577 75.4026 243.215 75.4026C246.146 75.4026 248.877 74.7498 251.408 73.4442C253.966 72.1119 256.098 70.3533 257.803 68.1684L265.197 72.2052C262.693 75.6957 259.535 78.4934 255.725 80.5984C251.915 82.6768 247.745 83.7159 243.215 83.7159ZM296.131 83.7159C291.655 83.7159 287.751 82.6235 284.421 80.4386C281.117 78.2536 278.545 75.3227 276.707 71.6456C274.895 67.9419 273.989 63.8385 273.989 59.3355V26.7217H282.302V59.3355C282.302 62.2665 282.835 64.9576 283.901 67.409C284.993 69.8337 286.566 71.7788 288.617 73.2443C290.696 74.6832 293.2 75.4026 296.131 75.4026C299.142 75.4026 301.673 74.6832 303.725 73.2443C305.777 71.7788 307.322 69.8337 308.361 67.409C309.427 64.9576 309.96 62.2665 309.96 59.3355V26.7217H318.273V59.3355C318.273 62.7194 317.754 65.8902 316.715 68.8479C315.675 71.7788 314.183 74.3634 312.238 76.6016C310.293 78.8398 307.962 80.5851 305.244 81.8374C302.526 83.0898 299.488 83.7159 296.131 83.7159ZM347.796 83.7159C344.732 83.7159 341.787 83.2363 338.963 82.2771C336.139 81.3178 333.674 79.9456 331.569 78.1604C329.464 76.3485 327.959 74.2036 327.053 71.7255L334.846 68.8079C335.299 70.0869 336.165 71.2326 337.444 72.2451C338.75 73.231 340.295 74.0037 342.081 74.5633C343.892 75.1228 345.798 75.4026 347.796 75.4026C349.928 75.4026 351.926 75.0562 353.791 74.3634C355.683 73.6707 357.202 72.7114 358.347 71.4857C359.52 70.2601 360.106 68.8212 360.106 67.1692C360.106 65.4639 359.493 64.065 358.268 62.9726C357.068 61.8801 355.523 61.0141 353.631 60.3747C351.766 59.7352 349.821 59.2556 347.796 58.9358C343.879 58.2963 340.362 57.3637 337.244 56.1381C334.154 54.9124 331.702 53.1938 329.89 50.9822C328.105 48.7706 327.212 45.893 327.212 42.3491C327.212 39.0185 328.158 36.1141 330.05 33.6361C331.969 31.1581 334.487 29.2397 337.604 27.8807C340.748 26.4952 344.146 25.8024 347.796 25.8024C350.807 25.8024 353.711 26.282 356.509 27.2413C359.333 28.1738 361.811 29.5461 363.943 31.358C366.101 33.1432 367.647 35.3148 368.579 37.8727L360.706 40.7104C360.253 39.4048 359.387 38.2724 358.108 37.3132C356.829 36.3273 355.283 35.5546 353.471 34.995C351.686 34.4355 349.794 34.1557 347.796 34.1557C345.664 34.1291 343.666 34.4755 341.801 35.1949C339.962 35.8876 338.457 36.8469 337.284 38.0726C336.112 39.2982 335.526 40.7238 335.526 42.3491C335.526 44.3475 336.072 45.8663 337.164 46.9055C338.257 47.9446 339.722 48.7174 341.561 49.2236C343.426 49.7032 345.504 50.1429 347.796 50.5426C351.473 51.1287 354.87 52.1013 357.988 53.4602C361.132 54.8191 363.65 56.631 365.542 58.8958C367.46 61.1341 368.419 63.8918 368.419 67.1692C368.419 70.4732 367.46 73.3776 365.542 75.8822C363.65 78.3602 361.132 80.292 357.988 81.6776C354.87 83.0365 351.473 83.7159 347.796 83.7159ZM388.17 82.6768L373.862 26.7217H382.415L392.887 67.7687L403.318 26.7217H410.872L421.344 67.7687L431.815 26.7217H440.369L426.14 82.6768H416.588L407.115 45.6265L397.643 82.6768H388.17Z" fill="#6B5C56"/>
<defs>
<clipPath id="clip0_800_3178">
<rect width="183.192" height="80.7585" fill="white" transform="translate(14.8516 14.4551)"/>
</clipPath>
</defs>
</svg>
